<svg xmlns="http://www.w3.org/2000/svg" width="256" height="256" viewBox="0 0 256 256">
  <defs><linearGradient id="g" x1="0" x2="1" y1="0" y2="1">
    <stop offset="0" stop-color="#34d399"/><stop offset="1" stop-color="#10b981"/>
  </linearGradient></defs>
  <rect width="256" height="256" rx="28" fill="url(#g)"/>
  <g fill="#fff" transform="translate(40,36)">
    <path d="M88 152c-28 0-48-24-48-52 0-28 20-68 48-92 28 24 48 64 48 92 0 28-20 52-48 52z" opacity="0.9"/>
    <path d="M88 120c-14 0-26-10-26-24 0-14 12-34 26-46 14 12 26 32 26 46 0 14-12 24-26 24z"/>
    <rect x="82" y="152" width="12" height="28" rx="6" />
  </g>
  <text x="128" y="232" text-anchor="middle" font-family="Inter, system-ui, sans-serif" font-size="20" fill="#ffffff">Paradise Nursery</text>
</svg>
